<svg width="212" height="32" viewBox="0 0 212 32" fill="none" xmlns="http://www.w3.org/2000/svg">
<g clip-path="url(#clip0_110_491)">
<path d="M105.472 4.72198L97.6841 10.9805H102.77V31.3243L105.472 29.1777V4.72198Z" fill="#5A29E4"/>
<path d="M107.716 27.3605L115.641 20.9449H110.413V1.06622L107.716 2.91814V27.3605Z" fill="#5A29E4"/>
<path d="M205.809 8.37654C206.707 8.83711 207.354 9.22683 207.749 9.54568L210.55 4.28454C209.15 3.43425 207.461 2.67254 205.486 1.9994C203.547 1.32626 201.446 0.989685 199.183 0.989685C197.028 0.989685 195.035 1.34397 193.203 2.05254C191.408 2.76111 189.971 3.80625 188.893 5.18797C187.852 6.56968 187.331 8.28797 187.331 10.3428C187.331 12.6457 188.067 14.4172 189.54 15.6572C191.048 16.8617 193.347 17.8537 196.436 18.6332C198.914 19.2709 200.907 19.8555 202.415 20.3869C203.96 20.8829 204.732 21.7155 204.732 22.8846C204.732 24.6206 203.08 25.4886 199.776 25.4886C198.124 25.4886 196.561 25.2937 195.089 24.904C193.616 24.5143 192.323 24.036 191.21 23.4692C190.133 22.9023 189.36 22.3886 188.893 21.928L185.984 27.508C187.852 28.6772 189.989 29.5983 192.395 30.2715C194.801 30.9446 197.226 31.2812 199.668 31.2812C201.787 31.2812 203.762 30.9977 205.594 30.4309C207.426 29.8286 208.898 28.872 210.011 27.5612C211.161 26.2149 211.735 24.4433 211.735 22.2468C211.735 20.4399 211.304 18.9875 210.442 17.8892C209.616 16.7555 208.413 15.852 206.833 15.1789C205.289 14.5057 203.457 13.9035 201.338 13.372C198.932 12.8052 197.1 12.2915 195.843 11.8309C194.622 11.3703 194.011 10.5908 194.011 9.49254C194.011 7.61483 195.699 6.67597 199.075 6.67597C200.332 6.67597 201.553 6.85311 202.739 7.2074C203.924 7.52625 204.947 7.91597 205.809 8.37654Z" fill="#5A29E4"/>
<path fill-rule="evenodd" clip-rule="evenodd" d="M149.116 31.1218C146.746 31.1218 144.591 30.7143 142.652 29.8995C140.712 29.0492 139.041 27.9155 137.641 26.4983C136.24 25.0458 135.162 23.416 134.408 21.6092C133.655 19.8023 133.277 17.9423 133.277 16.0292C133.277 14.0806 133.672 12.2029 134.462 10.396C135.252 8.58913 136.367 6.99486 137.803 5.61313C139.24 4.19599 140.927 3.07999 142.866 2.26513C144.806 1.45028 146.924 1.04285 149.223 1.04285C151.593 1.04285 153.749 1.48571 155.689 2.37142C157.628 3.2217 159.28 4.37313 160.645 5.8257C162.046 7.24285 163.122 8.85485 163.876 10.6617C164.631 12.4686 165.009 14.3108 165.009 16.1885C165.009 18.1371 164.614 20.0149 163.824 21.8218C163.033 23.5932 161.919 25.1875 160.482 26.6046C159.082 27.9863 157.413 29.0846 155.473 29.8995C153.534 30.7143 151.415 31.1218 149.116 31.1218ZM139.849 16.0823C139.849 17.6766 140.227 19.2 140.982 20.6526C141.735 22.0698 142.794 23.2212 144.159 24.1069C145.56 24.9926 147.23 25.4355 149.169 25.4355C151.144 25.4355 152.815 24.9749 154.179 24.0538C155.545 23.0972 156.586 21.9103 157.304 20.4931C158.022 19.0405 158.382 17.5526 158.382 16.0292C158.382 14.4349 158.005 12.9291 157.251 11.512C156.497 10.0948 155.419 8.96113 154.018 8.11085C152.653 7.22513 151.02 6.78228 149.116 6.78228C147.141 6.78228 145.452 7.24285 144.051 8.16399C142.687 9.08513 141.645 10.2543 140.927 11.6714C140.208 13.0886 139.849 14.5589 139.849 16.0823Z" fill="#5A29E4"/>
<path fill-rule="evenodd" clip-rule="evenodd" d="M0.763184 30.9092L13.908 1.20227H19.2414L32.3324 30.9092H25.4367L22.4199 23.9475H10.7296L7.71271 30.9092H0.763184ZM16.6016 9.01427L12.1841 18.3675H20.8576L16.6016 9.01427Z" fill="#5A29E4"/>
<path d="M57.8016 1.20227L66.0979 11.7246L74.3942 1.20227L81.4515 1.20227L69.5457 16.2417L81.0744 30.9092H74.0171L66.0979 20.812L58.2326 30.9092H51.0675L62.6501 16.2417L50.6904 1.20227L57.8016 1.20227Z" fill="#5A29E4"/>
</g>
<defs>
<clipPath id="clip0_110_491">
<rect width="211" height="31" fill="white" transform="translate(0.763184 0.67865)"/>
</clipPath>
</defs>
</svg>
