<svg width="60" height="83" viewBox="0 0 60 83" fill="none" xmlns="http://www.w3.org/2000/svg">
<g clip-path="url(#clip0_110_479)">
<path d="M59.6636 16.3115L54.2885 76.3242L30.1275 83L6.03293 76.3336L0.663574 16.3115H59.6636Z" fill="#264DE4"/>
<path d="M49.6869 72.5027L54.2802 21.2191H30.1636V77.8973L49.6869 72.5027Z" fill="#2965F1"/>
<path d="M12.9727 43.4805L13.6347 50.8419H30.1635V43.4805H12.9727Z" fill="#EBEBEB"/>
<path d="M30.1636 28.5807H30.1381H11.6426L12.314 35.9422H30.1636V28.5807Z" fill="#EBEBEB"/>
<path d="M30.1637 70.2581V62.5991L30.1313 62.6076L21.9053 60.3939L21.3794 54.5228H17.3822H13.9648L14.9996 66.0813L30.1297 70.2675L30.1637 70.2581Z" fill="#EBEBEB"/>
<path d="M14.5488 0L23.4948 0V3.72852L18.2899 3.72852V7.45703H23.4948V11.1855H14.5488V0Z" fill="white"/>
<path d="M25.2837 0L34.2296 0V3.24219L29.0247 3.24219V3.89062L34.2296 3.89062V11.3477H25.2837V7.94336H30.4886V7.29492H25.2837V0Z" fill="white"/>
<path d="M36.019 0L44.965 0V3.24219L39.7601 3.24219V3.89062L44.965 3.89062V11.3477H36.019V7.94336H41.224V7.29492H36.019V0Z" fill="white"/>
<path d="M39.2334 50.8419L38.3761 60.3891L30.1382 62.6052V70.2639L45.2803 66.0813L45.3914 64.8376L47.127 45.4572L47.3072 43.4805L48.6407 28.5807H30.1382V35.9422H40.5461L39.874 43.4805H30.1382V50.8419H39.2334Z" fill="white"/>
</g>
<defs>
<clipPath id="clip0_110_479">
<rect width="59" height="83" fill="white" transform="translate(0.663086)"/>
</clipPath>
</defs>
</svg>
