<svg width="219" height="62" viewBox="0 0 219 62" fill="none" xmlns="http://www.w3.org/2000/svg">
<path fill-rule="evenodd" clip-rule="evenodd" d="M0.663086 23.1849V46.3698H13.1082H25.5534V45.0672V43.7647H14.6639H3.77438V33.605V23.4454H14.1453H24.5163V22.1429V20.8403H14.1453H3.77438V11.7227V2.60504H14.6639H25.5534V1.30252V0H13.1082H0.663086V23.1849ZM78.3204 11.6826C75.4077 12.7272 73.9267 13.8635 72.3514 16.2633C71.028 18.2791 70.9165 18.3431 70.79 17.1625C70.2315 11.9639 70.0811 11.4622 69.0798 11.4622C68.0987 11.4622 68.0744 12.0759 68.0744 36.7311V62H69.3604H70.6464L70.7864 50.9286L70.9264 39.8571L72.1382 41.8156C72.8046 42.8925 74.438 44.4165 75.7681 45.2022C77.8915 46.4562 78.7228 46.6303 82.5937 46.6303C86.5015 46.6303 87.2855 46.4625 89.5049 45.1516C94.2455 42.3523 96.5945 36.8864 96.5945 28.6555C96.5945 21.2717 94.8802 16.4013 91.2789 13.5551C88.1437 11.0772 82.3453 10.2394 78.3204 11.6826ZM115.517 11.9129C113.486 12.8397 110.077 16.1799 110.077 17.2423C110.077 17.5356 109.843 17.6309 109.558 17.4538C109.273 17.2766 109.04 15.8564 109.04 14.297C109.04 11.6206 108.967 11.4622 107.743 11.4622H106.447V28.916V46.3698H107.969H109.49L109.654 33.9958C109.807 22.4044 109.89 21.4859 110.961 19.4732C113.171 15.3234 116.749 13.4071 121.79 13.6739C123.888 13.7848 124.331 13.6468 124.498 12.8272C124.608 12.2885 124.384 11.6471 123.999 11.4023C122.764 10.6155 117.69 10.9214 115.517 11.9129ZM139.242 11.7769C136.134 12.9267 132.685 16.5785 131.294 20.1948C129.548 24.7318 129.334 31.6752 130.791 36.4951C131.703 39.5143 132.401 40.7152 134.426 42.7493C137.753 46.0926 141.143 47.1377 147.384 46.7438C153.365 46.3661 155.915 45.4252 156.139 43.5136C156.284 42.2856 156.162 42.1162 155.362 42.4294C147.41 45.5413 139.219 44.4795 135.731 39.8853C134.121 37.7648 132.893 33.9958 132.893 31.1777V29.1765H145.39H157.888L157.516 25.3992C156.853 18.6875 154.466 14.2975 150.296 12.1223C148.052 10.9516 141.986 10.7619 139.242 11.7769ZM171.555 11.7185C168.719 12.7334 167.014 14.0933 165.951 16.1883C164.251 19.5399 165.238 24.0055 168.154 26.1468C168.867 26.6704 172.181 28.1397 175.518 29.4109C178.854 30.6827 182.211 32.1358 182.977 32.6401C185.01 33.9781 185.944 36.5487 185.287 38.9985C183.775 44.64 176.57 45.856 165.39 42.3554C164.604 42.1089 164.471 42.3069 164.613 43.5136C164.872 45.7253 167.605 46.5427 174.895 46.5912C180.144 46.6256 181.153 46.4844 183.318 45.4132C186.623 43.7777 188.013 41.7067 188.278 38.0211C188.676 32.4875 186.819 30.6973 176.71 26.8684C169.433 24.1117 168.154 23.0077 168.154 19.4852C168.154 16.6045 169.602 14.9404 172.891 14.0433C175.607 13.3019 181.526 13.6723 184.577 14.7737C186.503 15.4693 186.773 15.4687 187.04 14.7685C187.726 12.9715 187.293 12.5766 183.738 11.7644C179.335 10.7583 174.291 10.739 171.555 11.7185ZM201.786 11.7586C196.966 13.2492 194.449 17.4491 195.662 21.9761C196.507 25.1267 198.535 26.7079 204.571 28.9227C213.549 32.2166 215.151 33.3237 215.68 36.5977C216.066 38.9897 214.772 41.6927 212.611 43.0061C210.141 44.5077 201.181 44.4238 197.292 42.8628L194.54 41.7578L194.7 43.4125C194.852 44.9932 195.022 45.1094 198.489 46.0082C205.9 47.9286 214.342 46.414 217.036 42.681C218.393 40.7996 219.006 37.6272 218.47 35.2452C217.648 31.5778 215.198 29.8564 206.063 26.5245C200.031 24.3248 198.23 22.7988 198.23 19.89C198.23 17.1328 200.138 14.8154 203.064 14.0167C205.653 13.3102 211.631 13.6754 214.646 14.7247C216.735 15.4521 216.818 15.438 217.349 14.2689C218 12.8324 217.893 12.7512 214.004 11.7336C210.273 10.7573 204.987 10.7682 201.786 11.7586ZM32.2945 11.7493C32.2945 11.9071 34.8613 15.6672 37.9986 20.1052C41.1358 24.5431 43.7026 28.2954 43.7026 28.4429C43.7026 28.5909 40.9138 32.6849 37.5054 37.5407L31.3077 46.3698H33.0407C34.6902 46.3698 35.0294 45.9957 40.1065 38.5802C43.0399 34.2959 45.615 30.8994 45.8292 31.0328C46.0433 31.1657 48.5811 34.671 51.4679 38.8219C56.211 45.6414 56.8649 46.3698 58.2474 46.3698C59.089 46.3698 59.7776 46.2244 59.7776 46.0467C59.7776 45.8696 57.358 42.2939 54.4002 38.1013C51.443 33.9093 48.7221 29.9825 48.355 29.3755C47.7462 28.37 48.1683 27.5827 53.1044 20.5184C56.084 16.2539 58.7016 12.4719 58.921 12.1134C59.2103 11.6414 58.8473 11.4679 57.6044 11.483C55.987 11.5023 55.6064 11.9186 50.9623 18.7563C48.2529 22.7451 45.9033 26.0186 45.7405 26.0296C45.5782 26.041 43.1773 22.7681 40.4052 18.7563C35.8481 12.1603 35.2186 11.4622 33.83 11.4622C32.9858 11.4622 32.2945 11.5914 32.2945 11.7493ZM86.2759 14.1381C90.1889 15.4521 92.6593 19.1715 93.4801 24.985C94.5229 32.3749 92.2958 39.8655 88.2573 42.5513C84.2681 45.2032 77.7308 44.5988 74.5236 41.2811C69.3899 35.9699 69.6559 21.2243 74.9752 16.2372C77.5436 13.8291 82.573 12.895 86.2759 14.1381ZM148.76 14.5387C151.966 16.0017 153.561 18.7678 154.422 24.3571L154.763 26.5714H143.828C131.408 26.5714 132.223 26.9413 133.693 21.9694C135.695 15.1978 142.667 11.7586 148.76 14.5387Z" fill="white"/>
</svg>
