<svg width="58" height="86" viewBox="0 0 58 86" fill="none" xmlns="http://www.w3.org/2000/svg">
<g clip-path="url(#clip0_110_508)">
<path d="M14.5081 85.9316C22.3726 85.9316 28.7553 79.5849 28.7553 71.7649V57.5983H14.5081C6.64371 57.5983 0.260986 63.9449 0.260986 71.7649C0.260986 79.5849 6.64371 85.9316 14.5081 85.9316Z" fill="#0ACF83"/>
<path d="M0.260986 43.4317C0.260986 35.6117 6.64371 29.265 14.5081 29.265H28.7553V57.5983H14.5081C6.64371 57.5983 0.260986 51.2517 0.260986 43.4317Z" fill="#A259FF"/>
<path d="M0.260986 15.0983C0.260986 7.27831 6.64371 0.931641 14.5081 0.931641H28.7553V29.265H14.5081C6.64371 29.265 0.260986 22.9183 0.260986 15.0983Z" fill="#F24E1E"/>
<path d="M28.7551 0.931641H43.0023C50.8667 0.931641 57.2494 7.27831 57.2494 15.0983C57.2494 22.9183 50.8667 29.265 43.0023 29.265H28.7551V0.931641Z" fill="#FF7262"/>
<path d="M57.2494 43.4317C57.2494 51.2517 50.8667 57.5983 43.0023 57.5983C35.1379 57.5983 28.7551 51.2517 28.7551 43.4317C28.7551 35.6117 35.1379 29.265 43.0023 29.265C50.8667 29.265 57.2494 35.6117 57.2494 43.4317Z" fill="#1ABCFE"/>
</g>
<defs>
<clipPath id="clip0_110_508">
<rect width="57" height="85" fill="white" transform="translate(0.255127 0.931641)"/>
</clipPath>
</defs>
</svg>
