<svg width="201" height="56" viewBox="0 0 201 56" fill="none" xmlns="http://www.w3.org/2000/svg">
<g clip-path="url(#clip0_110_466)">
<path d="M60.6939 42.6439H56.9526V13.9005H73.9438V17.4319H60.6943V26.8688H72.6453V30.3186H60.6943V42.644L60.6939 42.6439ZM80.9784 18.0372C80.0866 18.9218 78.6861 19.0607 77.6339 18.3691C76.5816 17.6775 76.1709 16.348 76.6531 15.1942C77.1352 14.0404 78.3757 13.3836 79.6156 13.6259C80.8556 13.8681 81.7494 14.9419 81.7503 16.19C81.7623 16.8851 81.4817 17.5541 80.9754 18.0372H80.9785H80.9784ZM80.9784 42.6439H77.2372V22.9737H80.9784V42.644V42.6439ZM89.1882 42.6439H85.4469V22.9737H89.023V26.1852H89.185C89.617 25.0535 90.4466 24.1129 91.5225 23.5351C92.5499 22.8838 93.7383 22.5226 94.9588 22.4907C95.917 22.4638 96.8708 22.6281 97.7632 22.9737L96.3404 26.4235C95.6987 26.2126 95.0244 26.117 94.3491 26.1412C92.9772 26.1481 91.6715 26.724 90.7508 27.7281C89.707 28.7861 89.185 30.1713 89.185 31.8836L89.1882 42.644L89.1882 42.6439ZM108.015 43.2712C105.006 43.2712 102.561 42.2811 100.679 40.3015C98.7964 38.3218 97.8542 35.824 97.8521 32.809C97.7968 30.0945 98.7762 27.4585 100.596 25.4233C102.339 23.3975 104.918 22.2605 107.608 22.3305C110.562 22.3305 112.927 23.2808 114.703 25.1814C116.48 27.0819 117.367 29.6243 117.364 32.8087L117.323 33.4924H101.587C101.694 35.4723 102.366 37.0405 103.6 38.1967C104.754 39.3156 106.311 39.9361 107.928 39.9216C110.611 39.9216 112.427 38.7974 113.375 36.5502L116.71 37.9144C116.034 39.4697 114.919 40.8001 113.499 41.7469C112.006 42.763 110.178 43.2711 108.014 43.2711L108.015 43.2712ZM113.382 30.4127C113.302 29.2879 112.78 28.2174 111.817 27.2012C110.853 26.185 109.421 25.6875 107.52 25.7084C106.201 25.6855 104.92 26.1433 103.921 26.9942C102.875 27.8995 102.143 29.1061 101.828 30.4441L113.382 30.4127L113.382 30.4127ZM130.882 43.2712C129.466 43.2989 128.066 42.9754 126.81 42.3303C125.707 41.7809 124.774 40.9491 124.107 39.9217H123.945V42.644H120.366V13.9005H124.107V22.9737L123.945 25.7022H124.107C124.774 24.6748 125.707 23.8429 126.81 23.2936C128.064 22.641 129.464 22.3099 130.882 22.3308C133.456 22.3308 135.679 23.3343 137.551 25.3415C139.423 27.3487 140.357 29.8378 140.355 32.8088C140.353 35.7798 139.421 38.269 137.551 40.2761C135.681 42.2833 133.458 43.2817 130.882 43.2712L130.882 43.2712ZM130.272 39.8997C131.976 39.9131 133.604 39.2039 134.743 37.9521C135.991 36.6537 136.614 34.9341 136.614 32.793C136.614 30.652 135.991 28.9324 134.743 27.634C133.591 26.3971 131.968 25.6918 130.266 25.6882C128.564 25.6846 126.939 26.3832 125.781 27.6151C124.549 28.8988 123.933 30.6248 123.933 32.793C123.933 34.9611 124.555 36.6923 125.8 37.9865C126.946 39.2337 128.579 39.9358 130.284 39.9153L130.272 39.8996L130.272 39.8997ZM149.88 43.2712C147.763 43.2712 145.995 42.669 144.576 41.4647C143.158 40.2605 142.446 38.6683 142.442 36.6883C142.442 34.5473 143.282 32.8684 144.964 31.6515C146.645 30.4346 148.718 29.8262 151.182 29.8262C153.378 29.8262 155.178 30.2276 156.581 31.0305V30.4692C156.635 29.147 156.082 27.8715 155.076 26.9974C154.051 26.1262 152.733 25.6663 151.382 25.7084C150.348 25.6957 149.33 25.9586 148.435 26.4705C147.597 26.929 146.954 27.6706 146.625 28.5592L143.211 27.1134C143.672 25.9321 144.58 24.8365 145.94 23.8267C147.299 22.8169 149.084 22.315 151.307 22.3213C153.848 22.3213 155.965 23.0531 157.659 24.5166C159.353 25.9801 160.193 28.0543 160.181 30.7389V42.644H156.592V39.9154H156.43C154.937 42.1526 152.755 43.267 149.884 43.267L149.88 43.2712ZM150.49 39.8997C152.062 39.8943 153.571 39.2885 154.701 38.2093C155.905 37.2066 156.602 35.7317 156.606 34.1761C155.548 33.3188 153.96 32.8902 151.843 32.8902C150.026 32.8902 148.657 33.278 147.736 34.0537C146.877 34.7062 146.368 35.7117 146.355 36.7822C146.337 37.7138 146.821 38.5853 147.625 39.0717C148.471 39.6334 149.471 39.9276 150.49 39.9153V39.8996L150.49 39.8997ZM171.181 43.2712C168.958 43.2712 167.122 42.7359 165.674 41.6654C164.265 40.6378 163.167 39.2498 162.498 37.651L165.833 36.2868C166.891 38.7498 168.691 39.9813 171.232 39.9813C172.241 40.0221 173.239 39.7561 174.09 39.2192C174.792 38.7888 175.216 38.0279 175.208 37.212C175.208 35.9282 174.3 35.0585 172.479 34.6027L168.455 33.6398C167.131 33.2939 165.897 32.6715 164.837 31.8146C163.71 30.9459 163.074 29.5943 163.129 28.1828C163.129 26.4434 163.908 25.032 165.466 23.9489C167.096 22.844 169.038 22.2754 171.015 22.3244C172.665 22.2983 174.292 22.7087 175.728 23.513C177.083 24.2728 178.131 25.4715 178.694 26.9064L175.445 28.2173C174.714 26.4779 173.196 25.6079 170.891 25.6079C169.91 25.5757 168.939 25.8124 168.086 26.2917C167.388 26.6492 166.949 27.3617 166.949 28.1389C166.949 29.2637 167.83 30.0269 169.592 30.4283L173.533 31.3535C175.403 31.7717 176.785 32.5035 177.681 33.5488C178.548 34.5254 179.025 35.7812 179.021 37.0802C179.038 38.8122 178.224 40.45 176.826 41.496C175.363 42.6794 173.48 43.2711 171.177 43.2711L171.181 43.2712ZM191.303 43.2712C188.295 43.2712 185.849 42.2811 183.967 40.3015C182.085 38.3218 181.142 35.8184 181.14 32.7931C181.085 30.0785 182.064 27.4425 183.884 25.4073C185.634 23.3867 188.215 22.2558 190.906 22.3307C193.87 22.3307 196.235 23.281 198.001 25.1815C199.767 27.0821 200.654 29.6245 200.663 32.8088L200.621 33.4925H184.872C184.98 35.4724 185.651 37.0406 186.885 38.1968C188.043 39.3157 189.604 39.9341 191.223 39.9154C193.906 39.9154 195.722 38.7912 196.67 36.5439L200.005 37.9082C199.329 39.4635 198.215 40.794 196.794 41.7406C195.301 42.7609 193.471 43.2711 191.303 43.2711L191.303 43.2712ZM196.671 30.4127C196.59 29.2879 196.068 28.2174 195.105 27.2012C194.142 26.185 192.711 25.6875 190.814 25.7084C189.496 25.6859 188.215 26.1436 187.216 26.9942C186.17 27.8995 185.438 29.1061 185.123 30.4441L196.671 30.4127V30.4127Z" fill="white"/>
<path d="M1.01807 44.8504L7.89747 1.05668C7.98156 0.519594 8.40144 0.0962003 8.94011 0.00515787C9.47879 -0.0858845 10.0156 0.176043 10.2732 0.655394L17.3877 13.8567L20.2235 8.48513C20.4431 8.06979 20.8761 7.80973 21.3478 7.80973C21.8196 7.80973 22.2525 8.06979 22.4722 8.48513L41.6716 44.8503H1.01807V44.8504Z" fill="#FFA000"/>
<path d="M24.7846 27.7911L17.3844 13.8504L1.01807 44.8504L24.7846 27.7911Z" fill="#F57C00"/>
<path d="M41.6719 44.8504L36.4028 12.4127C36.3232 11.9469 35.989 11.5642 35.5365 11.42C35.084 11.2757 34.5887 11.3958 34.2526 11.7298L1.01807 44.8499L19.4076 55.1096C20.5624 55.751 21.9688 55.751 23.1236 55.1096L41.6719 44.8499V44.8504Z" fill="#FFCA28"/>
<path d="M36.4025 12.4127C36.3229 11.9469 35.9887 11.5642 35.5362 11.42C35.0837 11.2758 34.5884 11.3958 34.2523 11.7298L27.656 18.3088L22.469 8.48493C22.2494 8.0696 21.8165 7.80954 21.3447 7.80954C20.8729 7.80954 20.44 8.0696 20.2203 8.48493L17.3845 13.8565L10.2697 0.655407C10.0117 0.175928 9.47424 -0.0855747 8.93492 0.00614653C8.39561 0.0978677 7.97714 0.522322 7.89399 1.05984L1.01778 44.8504H0.995605L1.01778 44.8757L1.1988 44.9642L34.2427 12.0525C34.5786 11.7167 35.0751 11.596 35.5289 11.7398C35.9826 11.8837 36.3174 12.2678 36.3962 12.735L41.6208 44.882L41.6716 44.8504L36.4026 12.4127L36.4025 12.4127ZM1.07812 44.7904L7.89718 1.36953C7.98026 0.832019 8.3997 0.407565 8.93855 0.315844C9.4774 0.224122 10.0149 0.485541 10.2733 0.965104L17.3874 14.1664L20.2232 8.79484C20.4428 8.3795 20.8758 8.11944 21.3475 8.11944C21.8193 8.11944 22.2522 8.3795 22.4719 8.79484L27.5536 18.4099L1.07782 44.7904H1.07812Z" fill="white" fill-opacity="0.2"/>
<path opacity="0.2" d="M23.1236 54.8003C21.9688 55.4418 20.5624 55.4418 19.4076 54.8003L1.06254 44.5692L1.01807 44.8505L19.4076 55.107C20.5624 55.7484 21.9688 55.7484 23.1236 55.107L41.6719 44.8505L41.6242 44.5598L23.1236 54.8005V54.8003Z" fill="#A52714"/>
<path d="M36.3499 12.4194C36.2705 11.9537 35.9375 11.5709 35.4866 11.4275C35.0357 11.2841 34.5421 11.4033 34.2072 11.7372L27.6336 18.3129L22.4651 8.4936C22.2462 8.07843 21.8148 7.81846 21.3447 7.81846C20.8747 7.81846 20.4432 8.07843 20.2244 8.4936L17.398 13.8628L10.3085 0.667212C10.0513 0.187946 9.51582 -0.0735148 8.97885 0.0182489C8.44187 0.110012 8.02388 0.534128 7.94111 1.07152L1.08887 44.8429L19.4141 55.0949C20.5649 55.736 21.9664 55.736 23.1171 55.0949L41.6006 44.8429L36.3499 12.4193V12.4194Z" fill="url(#paint0_linear_110_466)"/>
</g>
<defs>
<linearGradient id="paint0_linear_110_466" x1="-0.324992" y1="9.45904" x2="50.116" y2="36.2039" gradientUnits="userSpaceOnUse">
<stop stop-color="white" stop-opacity="0.1"/>
<stop offset="0.14" stop-color="white" stop-opacity="0.08"/>
<stop offset="0.61" stop-color="white" stop-opacity="0.02"/>
<stop offset="1" stop-color="white" stop-opacity="0"/>
</linearGradient>
<clipPath id="clip0_110_466">
<rect width="200" height="56" fill="white" transform="translate(0.662598)"/>
</clipPath>
</defs>
</svg>
