<svg width="82" height="37" viewBox="0 0 82 37" fill="none" xmlns="http://www.w3.org/2000/svg">
<path d="M54.9033 14.2546C53.4396 14.2546 52.3479 14.9826 52.3479 16.7349C52.3479 18.0427 53.0668 18.9712 54.8232 18.9712C56.3128 18.9712 57.3244 18.0819 57.3244 16.68C57.3244 15.0889 56.4204 14.2546 54.9033 14.2546ZM51.9759 26.6258C51.629 27.0565 51.2837 27.5151 51.2837 28.0426C51.2837 29.1193 52.6398 29.4445 54.5038 29.4445C56.0476 29.4445 58.1501 29.3355 58.1501 27.8813C58.1501 27.0182 57.1385 26.9641 55.8599 26.883L51.9854 26.6145L51.9759 26.6258ZM59.854 14.3348C60.3319 14.9564 60.839 15.8169 60.839 17.0575C60.839 20.0479 58.5143 21.8003 55.1702 21.8003C54.3092 21.8003 53.5559 21.6913 53.0668 21.5579L52.1886 22.9746L54.7974 23.1359C59.4037 23.4323 62.1159 23.5683 62.1159 27.1507C62.1159 30.2509 59.4296 31.9998 54.7974 31.9998C49.9802 31.9998 48.1445 30.7601 48.1445 28.6215C48.1445 27.4096 48.6783 26.7618 49.6082 25.8717C48.73 25.4968 48.4373 24.822 48.4373 24.0949C48.4373 23.5021 48.73 22.9615 49.2096 22.4602L50.8592 20.843C49.5548 20.1978 48.569 18.7942 48.569 16.8108C48.569 13.7114 50.5923 11.5833 54.6648 11.5833C55.8099 11.5833 56.5022 11.6905 57.1144 11.8536H62.3044V14.1439L59.8549 14.3322L59.854 14.3348ZM66.9856 9.43685C65.4789 9.43685 64.5903 8.54759 64.5903 7.00968C64.5903 5.47177 65.4686 4.63831 66.9856 4.63831C68.5294 4.63831 69.4076 5.47526 69.4076 7.00968C69.4076 8.5441 68.5294 9.43685 66.9865 9.43685H66.9856ZM63.5417 25.6337V23.5064L64.9003 23.3181C65.2723 23.2641 65.3265 23.183 65.3265 22.7776V14.8561C65.3265 14.5597 65.2464 14.3714 64.9795 14.2895L63.5417 13.7777L63.8344 11.5964H69.3448V22.7819C69.3448 23.2135 69.3706 23.2667 69.7709 23.3225L71.127 23.5108V25.6363H63.5391L63.5417 25.6337ZM81.663 24.5901C80.5179 25.1568 78.8406 25.6799 77.3236 25.6799C74.1551 25.6799 72.9583 24.3879 72.9583 21.3408V14.279C72.9583 14.1177 72.9583 14.0087 72.7431 14.0087H70.892V11.6112C73.2339 11.3496 74.1663 10.1552 74.459 7.21718H76.9878V11.0445C76.9878 11.232 76.9878 11.3148 77.2013 11.3148H80.9552V14.0087H76.9792V20.4385C76.9792 22.0296 77.3528 22.6486 78.7873 22.6486C79.5329 22.6486 80.294 22.4602 80.9432 22.2179L81.6621 24.5892" fill="white"/>
<path d="M36.5131 16.8527L20.5572 0.697681C19.6394 -0.23256 18.149 -0.23256 17.2295 0.697681L13.9173 4.05248L18.1189 8.30701C19.0961 7.9731 20.2154 8.19803 20.992 8.98442C21.3629 9.36052 21.6217 9.83464 21.7391 10.3526C21.8565 10.8706 21.8277 11.4116 21.6559 11.9138L25.706 16.0149C26.6746 15.6731 27.8154 15.8954 28.5989 16.6862C28.947 17.0379 29.1974 17.4763 29.3249 17.9573C29.4524 18.4382 29.4525 18.9447 29.3251 19.4257C29.1977 19.9067 28.9474 20.3452 28.5994 20.697C28.2514 21.0488 27.8179 21.3016 27.3427 21.4298C26.868 21.5587 26.3681 21.5587 25.8933 21.4299C25.4186 21.301 24.9857 21.0478 24.6383 20.6957C23.8161 19.8622 23.6138 18.6382 24.0296 17.612L20.2628 13.7978V23.8631C20.5211 23.9973 20.7811 24.1743 21.0032 24.3992C22.0967 25.5065 22.0967 27.3007 21.0032 28.4096C20.7433 28.6731 20.4347 28.8821 20.095 29.0248C19.7553 29.1674 19.3911 29.2408 19.0234 29.2408C18.6556 29.2408 18.2915 29.1674 17.9518 29.0248C17.612 28.8821 17.3034 28.6731 17.0435 28.4096C15.9501 27.2998 15.9501 25.5065 17.0435 24.3992C17.3059 24.1337 17.6175 23.9234 17.9605 23.7802V13.6234C17.6376 13.4839 17.3147 13.2799 17.0435 13.0131C16.6506 12.6155 16.3834 12.1084 16.2761 11.5564C16.1687 11.0044 16.2261 10.4326 16.4408 9.91379L12.2977 5.71768L1.35021 16.7768C0.910144 17.2245 0.663086 17.8304 0.663086 18.4621C0.663086 19.0937 0.910144 19.6997 1.35021 20.1473L17.307 36.3023C18.2248 37.2326 19.7152 37.2326 20.6347 36.3023L36.5131 20.2232C36.9532 19.7755 37.2003 19.1696 37.2003 18.5379C37.2003 17.9063 36.9532 17.3003 36.5131 16.8527Z" fill="#F64D27"/>
</svg>
