<svg width="72" height="71" viewBox="0 0 72 71" fill="none" xmlns="http://www.w3.org/2000/svg">
<g clip-path="url(#clip0_110_506)">
<path fill-rule="evenodd" clip-rule="evenodd" d="M36.1631 0C16.5493 0 0.663086 15.8862 0.663086 35.5C0.663086 51.2088 10.825 64.4769 24.9362 69.1806C26.7112 69.4912 27.3768 68.4262 27.3768 67.4944C27.3768 66.6513 27.3325 63.8556 27.3325 60.8825C18.4131 62.5244 16.1056 58.7081 15.3956 56.7113C14.9962 55.6906 13.2656 52.54 11.7568 51.6969C10.5143 51.0312 8.73934 49.3894 11.7125 49.345C14.5081 49.3006 16.505 51.9187 17.1706 52.9837C20.3656 58.3531 25.4687 56.8444 27.51 55.9125C27.8206 53.605 28.7525 52.0519 29.7731 51.1644C21.8743 50.2769 13.6206 47.215 13.6206 33.6362C13.6206 29.7756 14.9962 26.5806 17.2593 24.0956C16.9043 23.2081 15.6618 19.5694 17.6143 14.6881C17.6143 14.6881 20.5875 13.7563 27.3768 18.3269C30.2168 17.5281 33.2343 17.1287 36.2518 17.1287C39.2693 17.1287 42.2868 17.5281 45.1268 18.3269C51.9162 13.7119 54.8893 14.6881 54.8893 14.6881C56.8418 19.5694 55.5993 23.2081 55.2443 24.0956C57.5075 26.5806 58.8831 29.7312 58.8831 33.6362C58.8831 47.2594 50.585 50.2769 42.6862 51.1644C43.9731 52.2738 45.0825 54.4038 45.0825 57.7319C45.0825 62.48 45.0381 66.2962 45.0381 67.4944C45.0381 68.4262 45.7037 69.5356 47.4787 69.1806C54.5261 66.8015 60.65 62.2722 64.9884 56.2303C69.3268 50.1884 71.6612 42.9381 71.6631 35.5C71.6631 15.8862 55.7768 0 36.1631 0Z" fill="white"/>
</g>
<defs>
<clipPath id="clip0_110_506">
<rect width="71" height="71" fill="white" transform="translate(0.663086)"/>
</clipPath>
</defs>
</svg>
