<svg width="76" height="75" viewBox="0 0 76 75" fill="none" xmlns="http://www.w3.org/2000/svg">
<g clip-path="url(#clip0_110_451)">
<path d="M16.542 0L19.9111 0V3.33984L23.0166 3.33984V0L26.3857 0V10.1074H23.0166V6.73828H19.9404V10.1074H16.542V0ZM30.8389 3.36914L27.8652 3.36914V0L37.1963 0V3.36914L34.208 3.36914V10.1074L30.8389 10.1074V3.36914ZM38.6758 0L42.2061 0L44.374 3.55957L46.542 0L50.0723 0V10.1074H46.7031V5.09766L44.3447 8.73047L41.9863 5.09766V10.1074H38.6758V0ZM51.7422 0L55.1113 0V6.76758L59.8867 6.76758V10.1074H51.7422" fill="white"/>
<path d="M16.4248 68.9941L11.5908 14.7363L64.7354 14.7363L59.9014 68.9648L38.1191 75" fill="#E44D26"/>
<path d="M38.1631 70.3857V19.1895H59.8867L55.7412 65.4785" fill="#F16529"/>
<path d="M21.4639 25.8252H38.1631V32.4756H28.7588L29.374 39.2871H38.1631V45.9229H23.2803L21.4639 25.8252ZM23.5732 49.2627H30.2529L30.7217 54.5801L38.1631 56.5723V63.5156L24.5107 59.707" fill="#EBEBEB"/>
<path d="M54.8037 25.8252H38.1338V32.4756H54.1885L54.8037 25.8252ZM53.5879 39.2871H38.1338V45.9375H46.3369L45.5605 54.5801L38.1338 56.5723V63.4863L51.7568 59.707" fill="white"/>
</g>
<defs>
<clipPath id="clip0_110_451">
<rect width="75" height="75" fill="white" transform="translate(0.663086)"/>
</clipPath>
</defs>
</svg>
