<svg width="131" height="70" viewBox="0 0 131 70" fill="none" xmlns="http://www.w3.org/2000/svg">
<g clip-path="url(#clip0_110_498)">
<path d="M114.067 0H17.2666L0.663086 35L17.2666 70H114.067L130.67 35L114.067 0ZM108.518 64.176H20.9157L7.07421 35L20.9157 5.824H108.518L122.36 35L108.518 64.176Z" fill="#008EC7"/>
<path d="M122.36 35.0035L108.518 64.1795H20.9157L7.07422 35.0035L20.9157 5.82397H108.518L122.36 35.0035Z" fill="#005B9B"/>
<path d="M45.2072 25.1615V45.997H40.4136V37.45H31.0213V45.9935H26.2173V25.1615H31.0074V33.376H40.3997V25.1615H45.2072Z" fill="white"/>
<path d="M54.408 29.092H47.7812V25.1615H65.8249V29.092H59.2155V45.997H54.408V29.092Z" fill="white"/>
<path d="M72.9837 29.092H66.3569V25.1615H84.4006V29.092H77.7738V45.997H72.9837V29.092Z" fill="white"/>
<path d="M100.716 26.0855C101.99 26.6327 103.079 27.5426 103.846 28.7035C104.594 29.9061 104.974 31.3034 104.939 32.7215C104.97 34.1347 104.59 35.5264 103.846 36.7255C103.085 37.8919 101.995 38.8033 100.716 39.3435C99.2035 39.9801 97.5749 40.2889 95.9361 40.25H91.7617V45.997H86.9751V25.1615H95.9361C97.5766 25.1228 99.2063 25.4378 100.716 26.0855ZM98.9555 35.385C99.3336 35.0578 99.6317 34.6472 99.8265 34.1853C100.021 33.7234 100.108 33.2225 100.079 32.7215C100.079 31.5525 99.7034 30.653 98.9555 30.03C98.2076 29.407 97.1119 29.092 95.6717 29.092H91.7652V36.323H95.6717C97.1119 36.323 98.2065 36.0103 98.9555 35.385Z" fill="white"/>
</g>
<defs>
<clipPath id="clip0_110_498">
<rect width="130" height="70" fill="white" transform="translate(0.663086)"/>
</clipPath>
</defs>
</svg>
