<svg width="86" height="86" viewBox="0 0 86 86" fill="none" xmlns="http://www.w3.org/2000/svg">
<path d="M0.0786133 0.416016H85.0786V85.416H0.0786133V0.416016ZM78.1137 65.1468C77.4978 61.2711 74.9677 58.0113 67.4816 54.9695C64.8757 53.7471 61.976 52.8943 61.1137 50.9327C60.7915 49.7672 60.7442 49.1228 60.9526 48.4311C61.4833 46.1473 64.1934 45.4556 66.3161 46.0905C67.6996 46.5169 68.9694 47.5782 69.7748 49.2744C73.4326 46.877 73.4326 46.877 75.9911 45.2945C75.034 43.8068 74.5602 43.1624 73.9158 42.5275C71.689 40.0353 68.7135 38.756 63.8807 38.8698L61.3791 39.1825C58.9816 39.77 56.7074 41.0398 55.3239 42.7454C51.2871 47.3224 52.4526 55.2822 57.3423 58.5799C62.175 62.1903 69.2442 62.9863 70.1539 66.3881C71.0067 70.5292 67.0742 71.8558 63.189 71.382C60.3177 70.7471 58.7258 69.3068 56.9727 66.6535L50.4911 70.3776C51.2302 72.0738 52.0831 72.8224 53.3623 74.3006C59.5218 80.5169 74.9298 80.2042 77.6968 70.7471C77.801 70.4249 78.5496 68.2454 77.9621 64.9004L78.1137 65.1468ZM46.3027 39.4857H38.3428C38.3428 46.3463 38.3144 53.1691 38.3144 60.0487C38.3144 64.4077 38.5418 68.416 37.8216 69.6479C36.6561 72.0927 33.6427 71.78 32.2782 71.3441C30.8757 70.6524 30.165 69.6953 29.3406 68.3118C29.1132 67.9422 28.9521 67.62 28.8952 67.62L22.4326 71.6C23.5128 73.8268 25.0859 75.7505 27.1232 76.9729C30.1555 78.7828 34.2208 79.3608 38.485 78.4038C41.2614 77.6078 43.6494 75.9589 44.9002 73.4099C46.7102 70.1122 46.3216 66.0754 46.3027 61.5554C46.3406 54.2778 46.3027 47.0002 46.3027 39.6752V39.4857Z" fill="#F5DD1E"/>
</svg>
