<svg width="119" height="87" viewBox="0 0 119 87" fill="none" xmlns="http://www.w3.org/2000/svg">
<path d="M118.12 50.256C117.802 49.8976 117.484 49.579 117.192 49.2206C116.278 47.8401 115.178 46.6188 113.933 45.6232C112.939 44.84 110.753 43.7515 110.329 42.4506L110.276 42.371C110.952 42.3046 111.787 42.0126 112.423 41.8134C113.496 41.4949 114.45 41.548 115.549 41.2559C116.04 41.1099 116.543 40.9373 117.06 40.7515V40.4329C116.503 39.7957 116.079 38.9196 115.51 38.309C113.907 36.6895 112.171 35.2293 110.356 33.9151C109.375 33.1983 108.13 32.7337 107.096 32.1363C106.725 31.9106 106.103 31.8177 105.891 31.4593C105.334 30.6761 105.003 29.6407 104.619 28.7248C103.704 26.6805 102.856 24.6229 102.061 22.5123C101.505 21.1185 101.147 19.7114 100.472 18.437C97.2519 12.3573 93.754 8.68022 88.388 5.08282C87.2353 4.33945 85.8573 4.02086 84.3866 3.62262C83.6049 3.5828 82.8364 3.51643 82.0415 3.4766C81.538 3.21111 81.0213 2.56066 80.584 2.21552C78.7954 0.941169 74.211 -1.84648 72.8993 1.83056C72.0646 4.15361 74.1448 6.42355 74.8735 7.60498C75.4167 8.428 76.0792 9.35722 76.4634 10.2864C76.6887 10.9103 76.7417 11.5475 76.9669 12.1847C77.4572 13.7644 77.9341 15.5033 78.5966 16.9768C78.9411 17.7202 79.3121 18.5166 79.7493 19.1804C79.9878 19.5786 80.425 19.7644 80.531 20.4016C80.0938 21.1185 80.0541 22.1804 79.8156 23.0831C78.7026 27.1185 79.1398 32.1098 80.7298 35.0965C81.2333 35.9726 82.4257 37.9506 84.0156 37.1939C85.4201 36.5567 85.1154 34.5124 85.5261 32.7337C85.6188 32.3089 85.5658 32.0168 85.7513 31.7381V31.8177C86.1886 32.8133 86.6258 33.7823 87.0233 34.7779C87.9905 36.5302 89.6599 38.3488 91.0776 39.5568C91.8329 40.1939 92.4291 41.309 93.3565 41.694V41.5878H93.2903C93.0916 41.2825 92.8133 41.1232 92.5748 40.8709C91.9786 40.2072 91.4354 39.4904 90.9319 38.7337C89.6202 36.6762 88.4542 34.4992 87.434 32.2425C86.9305 31.1274 86.4933 29.9062 86.0826 28.8044C85.8838 28.3796 85.8838 27.7424 85.5791 27.5301C85.1021 28.3132 84.4264 28.9902 84.0686 29.946C83.4724 31.4859 83.4194 33.3841 83.1942 35.3355C83.0749 35.3753 83.1279 35.3355 83.0749 35.4151C82.0812 35.1364 81.7235 33.9549 81.3658 32.9593C80.4383 30.4239 80.2793 26.3486 81.0875 23.4282C81.3128 22.6848 82.2402 20.3087 81.8692 19.6052C81.6705 18.9282 81.061 18.5432 80.7165 17.9857C80.2793 17.2688 79.8951 16.5122 79.6036 15.7024C78.8484 13.698 78.4906 11.4811 77.6559 9.48997C77.2849 8.57402 76.6224 7.59171 76.1057 6.75541C75.5095 5.79965 74.8603 5.12265 74.3965 3.98104C74.2375 3.5828 74.0255 2.94562 74.2773 2.52084C74.3435 2.24207 74.476 2.1226 74.7145 2.04295C75.1385 1.65799 76.2912 2.16243 76.6887 2.38809C77.8414 2.93235 78.8219 3.42351 79.7891 4.16688C80.2263 4.52529 80.7033 5.20229 81.2598 5.36159H81.909C82.9027 5.62708 84.0422 5.44123 84.9696 5.75982C86.6258 6.35718 88.123 7.25984 89.4612 8.21561C93.595 11.2289 96.9604 15.4502 99.1996 20.4282C99.5706 21.2512 99.7428 22.0078 100.074 22.8707C100.723 24.6229 101.545 26.4017 102.207 28.1009C102.856 29.7734 103.479 31.4991 104.433 32.893C104.91 33.6363 106.778 34.0346 107.613 34.4063C108.249 34.7248 109.203 35.0302 109.759 35.4018C110.833 36.1452 111.879 36.9948 112.886 37.8178C113.39 38.216 114.953 39.1187 115.059 39.8355C112.555 39.7559 110.621 40.0612 108.991 40.8311C108.514 41.0568 107.785 41.0568 107.719 41.7338C107.984 42.0126 108.01 42.4772 108.222 42.8754C108.593 43.5922 109.243 44.548 109.826 45.0524C110.475 45.6365 111.137 46.2073 111.826 46.7117C113.032 47.5746 114.41 48.0657 115.602 48.9286C116.278 49.433 116.967 50.0702 117.669 50.6012C118.014 50.8667 118.226 51.3446 118.663 51.5171V51.4109C118.398 51.0658 118.332 50.6145 118.12 50.256ZM21.0541 49.7383L14.7605 71.4422H14.7208L8.48029 49.7383H3.11424C2.09403 58.9243 0.928076 68.7607 0.663086 79.2609H5.4859C5.57865 71.4024 5.5389 64.5527 6.04238 56.7207H6.09538L12.2829 79.2609H16.4432L22.5248 56.7075H22.5645C23.28 64.5394 23.3462 71.3891 23.4787 79.2476H28.699C28.487 70.3404 27.2946 60.4907 26.1816 49.7118H21.0541V49.7383ZM38.9144 75.0661C38.8216 73.8449 38.6494 72.9422 37.9472 70.0749L34.5553 57.4641H29.4277L34.1711 74.3095C34.8865 76.8449 35.2443 78.5308 35.2443 79.3405C35.2443 80.5352 35.178 80.96 34.7408 81.5839C33.9723 82.3671 32.9786 82.7654 31.7199 82.7654C31.0442 82.7654 30.4214 82.7255 29.918 82.6193V86.2566C30.9647 86.761 31.8391 86.9999 32.5546 86.9999C35.231 86.9999 37.6954 85.1017 39.9478 81.2653C42.8362 76.3139 45.1549 68.3758 46.9303 57.4508H41.9485C41.2065 64.181 40.7958 69.3979 38.9144 75.0661ZM102.512 49.7383H97.5036V79.2609H109.799V74.6281H102.512V49.7383ZM89.5274 77.3095C89.9514 76.9113 90.3489 76.4732 90.7199 75.9688C92.7471 73.2741 93.7408 69.2519 93.7408 63.9421C93.7408 54.172 90.3887 49.2737 83.6712 49.2737C80.3853 49.2737 77.8149 50.5083 75.96 52.9906C73.946 55.7119 72.9391 59.7075 72.9391 64.9775C72.9391 70.1678 73.8268 73.9909 75.6155 76.4069C77.2584 78.6104 79.7096 79.6857 83.0087 79.6857C84.2541 79.6857 85.3671 79.4998 86.4006 79.168L92.5881 83.2831L94.2708 79.9644H94.2575L89.5274 77.3095ZM83.4327 74.4688C81.6307 74.4688 80.319 73.6856 79.4843 72.1723V72.1457C78.5701 70.4864 78.1196 67.805 78.1196 64.1545C78.1196 57.7429 79.8288 54.5172 83.2472 54.5172C85.0359 54.5172 86.3608 55.3004 87.1823 56.8137C88.0965 58.4862 88.547 61.1279 88.547 64.7518C88.5602 71.2165 86.851 74.4688 83.4327 74.4688ZM68.1295 64.858C68.1295 64.858 64.4197 62.4155 62.5912 61.2872C60.5773 60.0128 59.3053 58.5128 59.3053 56.7473C59.3053 55.672 59.9148 54.849 60.6303 54.1455C61.3458 53.4021 62.366 53.0437 63.6909 53.0437C65.4001 53.0702 67.0961 53.88 68.6595 54.6632L69.6532 50.7207C67.6923 49.2605 65.5061 48.5171 63.1079 48.5171C60.7628 48.5171 58.8814 49.2604 57.4107 50.7339C55.94 52.1941 54.509 54.9287 54.509 57.3314C54.509 60.2252 55.4895 61.9642 57.4637 63.6235C57.4637 63.6235 61.0808 65.9996 62.9092 67.1412C64.8701 68.4023 65.9301 69.9023 65.9301 71.6546C65.9433 72.9289 65.4266 74.1767 64.5256 74.9334C63.6379 75.7166 62.6045 75.3715 61.571 75.3184C59.9148 75.2387 58.0599 74.7343 56.0062 73.5661L54.9065 76.898C57.2914 78.7299 59.7161 79.6591 62.2467 79.6591C64.9629 79.6591 67.1093 78.8626 68.7125 77.2564C70.3157 75.6635 71.1239 73.6059 71.1239 71.0838L71.1636 71.1103C71.1769 68.2165 70.1567 66.4775 68.1295 64.858Z" fill="white"/>
<path d="M83.0616 8.97229C82.5184 8.99884 82.1474 9.05194 81.7632 9.15813V9.22451H81.8294C82.0679 9.78204 82.5052 10.1803 82.8231 10.6847C83.0616 11.2688 83.3001 11.8263 83.5386 12.3971L83.6049 12.3175C84.0421 11.9591 84.2541 11.4015 84.2541 10.5387C84.0554 10.2732 84.0421 10.0343 83.8831 9.79531C83.7374 9.42363 83.3266 9.25106 83.0616 8.97229Z" fill="white"/>
</svg>
