<svg width="111" height="54" viewBox="0 0 111 54" fill="none" xmlns="http://www.w3.org/2000/svg">
<path d="M32.4068 14.097L49.0142 14.097V15.4284L33.9296 15.4284V25.4478H48.1145V26.7792H33.9296V37.7796H49.1871V39.111H32.4068V14.097ZM50.5017 14.097H52.2665L60.0857 25.0974L68.0779 14.097L78.9485 0.124207L61.0891 26.2536L70.2922 39.111H68.4582L60.0857 27.4098L51.6786 39.111H49.8793L59.1515 26.2536L50.5023 14.097H50.5017ZM70.9498 15.4284V14.097H89.8745V15.4284H81.1562V39.1104H79.6335V15.4284H70.9504H70.9498ZM11.6309 14.097H13.5339L39.7736 53.6988L28.9298 39.111L13.2221 15.9888L13.153 39.111H11.6309L11.6309 14.097ZM89.7219 37.3776C89.4101 37.3776 89.177 37.1346 89.177 36.8208C89.177 36.5064 89.4101 36.2634 89.7213 36.2634C90.0361 36.2634 90.2657 36.5064 90.2657 36.8208C90.2657 37.1346 90.0361 37.3776 89.7213 37.3776H89.7219ZM91.2172 35.9118H92.0322C92.0435 36.357 92.3661 36.6558 92.8395 36.6558C93.3689 36.6558 93.6688 36.3348 93.6688 35.7324V31.9188H94.4981V35.736C94.4981 36.8208 93.8763 37.4454 92.8466 37.4454C91.8808 37.4454 91.2178 36.8394 91.2178 35.9118H91.2172ZM95.5826 35.8638H96.4048C96.4751 36.3756 96.9712 36.7008 97.686 36.7008C98.352 36.7008 98.8409 36.3528 98.8409 35.8746C98.8409 35.4636 98.5303 35.2164 97.8226 35.0484L97.1339 34.8804C96.1681 34.6524 95.7269 34.1808 95.7269 33.3882C95.7269 32.427 96.5043 31.7874 97.6705 31.7874C98.7556 31.7874 99.5486 32.427 99.5963 33.3354H98.789C98.7115 32.8386 98.2822 32.5278 97.6598 32.5278C97.004 32.5278 96.5675 32.8458 96.5675 33.3318C96.5675 33.717 96.849 33.9378 97.5453 34.1022L98.1338 34.248C99.2296 34.506 99.6815 34.9548 99.6815 35.766C99.6815 36.798 98.8886 37.4454 97.6228 37.4454C96.4382 37.4454 95.6416 36.828 95.5826 35.8632V35.8638Z" fill="white"/>
</svg>
