<svg width="161" height="99" viewBox="0 0 161 99" fill="none" xmlns="http://www.w3.org/2000/svg">
<g clip-path="url(#clip0_110_440)">
<path d="M79.757 98.8696C79.2289 98.8696 78.7045 98.7311 78.2415 98.4645L73.4177 95.6084C72.6972 95.2054 73.0488 95.0629 73.2864 94.9808C74.2471 94.6444 74.442 94.5684 75.4674 93.9861C75.5752 93.9246 75.7162 93.9463 75.8265 94.0114L79.5324 96.2107C79.6662 96.283 79.8561 96.283 79.9802 96.2107L94.4296 87.8694C94.5634 87.7935 94.6502 87.6379 94.6502 87.4788V70.8036C94.6502 70.6372 94.5634 70.4889 94.4267 70.4057L79.9831 62.0717C79.8492 61.9921 79.672 61.9921 79.5382 62.0717L65.0975 70.4057C64.9575 70.4852 64.8685 70.6408 64.8685 70.7999V87.4752C64.8685 87.6343 64.9553 87.7862 65.0928 87.8622L69.0496 90.1483C71.198 91.2226 72.511 89.9565 72.511 88.6833V72.2251C72.511 71.99 72.6954 71.8091 72.9305 71.8091H74.7607C74.9885 71.8091 75.1766 71.99 75.1766 72.2251V88.6905C75.1766 91.5553 73.6141 93.2012 70.8978 93.2012C70.0623 93.2012 69.4041 93.2012 67.5667 92.2969L63.7762 90.1121C62.8394 89.5695 62.2607 88.5567 62.2607 87.4752V70.7999C62.2607 69.7148 62.8394 68.702 63.7762 68.1666L78.2401 59.8218C79.1552 59.3045 80.3704 59.3045 81.2783 59.8218L95.7241 68.1702C96.6572 68.7092 97.2395 69.7184 97.2395 70.8036V87.4788C97.2395 88.5603 96.6572 89.5695 95.7241 90.1121L81.2783 98.4569C80.8153 98.7246 80.2909 98.862 79.7556 98.862" fill="#689F63"/>
<path d="M84.2206 87.3793C77.8983 87.3793 76.5728 84.4768 76.5728 82.0425C76.5728 81.811 76.7594 81.6265 76.9912 81.6265H78.8575C79.0637 81.6265 79.2373 81.7766 79.2699 81.9803C79.552 83.8822 80.3911 84.8415 84.2141 84.8415C87.2595 84.8415 88.5544 84.1535 88.5544 82.5384C88.5544 81.6088 88.1855 80.9179 83.4546 80.4549C79.4977 80.0642 77.0527 79.1925 77.0527 76.0275C77.0527 73.112 79.5122 71.3758 83.6318 71.3758C88.2578 71.3758 90.5509 72.9818 90.8402 76.4326C90.8511 76.552 90.8077 76.6677 90.7281 76.7545C90.6485 76.8377 90.5364 76.8883 90.4207 76.8883H88.5435C88.3482 76.8883 88.1782 76.7509 88.1384 76.5628C87.6863 74.5625 86.594 73.9223 83.6246 73.9223C80.3007 73.9223 79.9137 75.0798 79.9137 75.9479C79.9137 77.0005 80.3694 77.3079 84.8543 77.9012C89.2958 78.4908 91.4045 79.3227 91.4045 82.4443C91.4045 85.5913 88.7786 87.3963 84.1997 87.3963L84.2206 87.3793ZM101.799 69.7119H102.284C102.682 69.7119 102.758 69.4333 102.758 69.2706C102.758 68.8437 102.465 68.8437 102.302 68.8437H101.803L101.799 69.7119ZM101.21 68.3446H102.284C102.653 68.3446 103.376 68.3446 103.376 69.1693C103.376 69.7444 103.007 69.8638 102.787 69.9361C103.217 69.9651 103.246 70.2472 103.304 70.6451C103.333 70.8947 103.38 71.3251 103.467 71.4698H102.805C102.787 71.3251 102.685 70.5293 102.685 70.4859C102.642 70.3087 102.581 70.2219 102.36 70.2219H101.814V71.4734H101.21V68.3446ZM99.9186 69.8999C99.9186 71.1949 100.964 72.2439 102.248 72.2439C103.543 72.2439 104.588 71.1732 104.588 69.8999C104.588 68.6014 103.528 67.5705 102.244 67.5705C100.978 67.5705 99.915 68.5869 99.915 69.8963L99.9186 69.8999ZM105.036 69.9072C105.036 71.4409 103.781 72.6924 102.251 72.6924C100.732 72.6924 99.4665 71.4553 99.4665 69.9072C99.4665 68.3301 100.761 67.1219 102.251 67.1219C103.752 67.1219 105.033 68.3337 105.033 69.9072" fill="#689F63"/>
<path fill-rule="evenodd" clip-rule="evenodd" d="M35.0124 33.6229C35.0124 32.9573 34.6616 32.346 34.0872 32.0151L18.7676 23.2C18.509 23.0481 18.2193 22.9685 17.9256 22.9576H17.7672C17.4735 22.9685 17.1838 23.0481 16.9208 23.2L1.60194 32.0151C1.03119 32.3478 0.675293 32.9591 0.675293 33.6247L0.70893 57.3679C0.70893 57.6971 0.878923 58.0045 1.16827 58.1673C1.45039 58.3409 1.80484 58.3409 2.08696 58.1673L11.1942 52.9513C11.7693 52.6091 12.1202 52.0043 12.1202 51.3453V40.2532C12.1202 39.5913 12.471 38.9799 13.0443 38.6508L16.9216 36.4175C17.2095 36.2511 17.5256 36.1687 17.8475 36.1687C18.1643 36.1687 18.4877 36.2504 18.7676 36.4172L22.6431 38.6497C23.2167 38.9789 23.569 39.5902 23.569 40.2521V51.3435C23.569 52.0018 23.9246 52.6095 24.4967 52.9495L33.5982 58.1619C33.884 58.3319 34.2395 58.3319 34.5242 58.1619C34.8048 57.9991 34.9828 57.6916 34.9828 57.3625L35.0124 33.6229ZM107.302 45.985C107.302 46.1503 107.214 46.3033 107.071 46.385L101.809 49.4184C101.666 49.5005 101.489 49.5005 101.347 49.4184L96.0844 46.385C95.9397 46.3029 95.8529 46.1499 95.8529 45.985V39.9096C95.8529 39.7439 95.9397 39.5913 96.0808 39.5081L101.34 36.4696C101.484 36.3864 101.662 36.3864 101.806 36.4696L107.069 39.5081C107.214 39.5913 107.3 39.7439 107.3 39.9096L107.302 45.985ZM108.724 0.986503C108.436 0.826624 108.087 0.830964 107.803 0.99627C107.521 1.16266 107.347 1.4665 107.347 1.79567V25.3074C107.347 25.5389 107.224 25.7523 107.024 25.868C106.825 25.9838 106.577 25.9838 106.376 25.868L102.539 23.6576C101.967 23.327 101.263 23.327 100.69 23.6576L85.3651 32.5027C84.7925 32.8318 84.4392 33.4431 84.4392 34.1015V51.7967C84.4392 52.4587 84.7925 53.0663 85.3651 53.3991L100.69 62.2504C101.262 62.5795 101.967 62.5795 102.541 62.2504L117.865 53.3955C118.437 53.0627 118.791 52.455 118.791 51.7931V7.6924C118.791 7.02105 118.426 6.4036 117.84 6.07552L108.724 0.986503ZM159.755 39.7497C160.324 39.4191 160.675 38.8085 160.675 38.1502V33.8616C160.675 33.2019 160.324 32.5931 159.754 32.261L144.527 23.4206C143.952 23.0879 143.246 23.0879 142.671 23.4206L127.35 32.2646C126.775 32.5974 126.424 33.2051 126.424 33.8671V51.5551C126.424 52.2206 126.782 52.8356 127.357 53.1647L142.581 61.8424C143.141 62.1643 143.829 62.1679 144.396 61.8532L153.605 56.7349C153.894 56.5721 154.079 56.2647 154.079 55.9319C154.079 55.5991 153.902 55.288 153.612 55.1252L138.197 46.2776C137.908 46.1148 137.731 45.8074 137.731 45.4782V39.9295C137.731 39.5981 137.904 39.2928 138.193 39.1279L142.989 36.3607C143.275 36.1944 143.626 36.1944 143.912 36.3607L148.711 39.1279C148.997 39.2907 149.174 39.5981 149.174 39.9273V44.2896C149.174 44.6188 149.352 44.9262 149.637 45.0926C149.923 45.2554 150.277 45.2554 150.563 45.089L159.755 39.7497Z" fill="white"/>
<path fill-rule="evenodd" clip-rule="evenodd" d="M143.375 38.922C143.483 38.858 143.619 38.858 143.729 38.922L146.67 40.6185C146.78 40.6822 146.847 40.7994 146.847 40.926V44.3225C146.847 44.4491 146.78 44.5663 146.67 44.63L143.729 46.3264C143.619 46.3904 143.483 46.3904 143.375 46.3264L140.436 44.63C140.324 44.5663 140.255 44.4491 140.255 44.3225V40.926C140.255 40.7994 140.32 40.6822 140.433 40.6185L143.375 38.922Z" fill="#689F63"/>
<path d="M92.2031 30.8112L49.2654 9.76282L27.2495 54.6788L70.1861 75.7283L92.2031 30.8112Z" fill="url(#paint0_linear_110_440)"/>
<path d="M24.4614 37.0367L54.7799 78.0747L94.8765 48.4478L64.5563 7.41089L24.4614 37.0367Z" fill="url(#paint1_linear_110_440)"/>
<path d="M43.6128 23.2661V62.1255H76.7734V23.2661H43.6128Z" fill="url(#paint2_linear_110_440)"/>
</g>
<defs>
<linearGradient id="paint0_linear_110_440" x1="70.7214" y1="20.2539" x2="48.7039" y2="65.1655" gradientUnits="userSpaceOnUse">
<stop offset="0.3" stop-color="#3E863D"/>
<stop offset="0.5" stop-color="#55934F"/>
<stop offset="0.8" stop-color="#5AAD45"/>
</linearGradient>
<linearGradient id="paint1_linear_110_440" x1="39.8023" y1="57.7909" x2="79.903" y2="28.1639" gradientUnits="userSpaceOnUse">
<stop offset="0.57" stop-color="#3E863D"/>
<stop offset="0.72" stop-color="#619857"/>
<stop offset="1" stop-color="#76AC64"/>
</linearGradient>
<linearGradient id="paint2_linear_110_440" x1="43.624" y1="42.6969" x2="76.7796" y2="42.6969" gradientUnits="userSpaceOnUse">
<stop offset="0.16" stop-color="#6BBF47"/>
<stop offset="0.38" stop-color="#79B461"/>
<stop offset="0.47" stop-color="#75AC64"/>
<stop offset="0.7" stop-color="#659E5A"/>
<stop offset="0.9" stop-color="#3E863D"/>
</linearGradient>
<clipPath id="clip0_110_440">
<rect width="160" height="98" fill="white" transform="translate(0.675293 0.869263)"/>
</clipPath>
</defs>
</svg>
