<svg width="108" height="95" viewBox="0 0 108 95" fill="none" xmlns="http://www.w3.org/2000/svg">
<g clip-path="url(#clip0_110_461)">
<path d="M54.1639 57.0169C59.431 57.0169 63.7009 52.7561 63.7009 47.5C63.7009 42.2439 59.431 37.983 54.1639 37.983C48.8968 37.983 44.627 42.2439 44.627 47.5C44.627 52.7561 48.8968 57.0169 54.1639 57.0169Z" fill="#61DAFB"/>
<path d="M54.1632 66.9981C82.4257 66.9981 105.337 58.2685 105.337 47.5C105.337 36.7314 82.4257 28.0018 54.1632 28.0018C25.9006 28.0018 2.98926 36.7314 2.98926 47.5C2.98926 58.2685 25.9006 66.9981 54.1632 66.9981Z" stroke="#61DAFB" stroke-width="4"/>
<path d="M37.2437 57.2491C51.375 81.6739 70.4066 97.1093 79.752 91.725C89.0975 86.3407 85.2177 62.1757 71.0865 37.751C56.9552 13.3262 37.9236 -2.10919 28.5781 3.27508C19.2327 8.65934 23.1124 32.8243 37.2437 57.2491Z" stroke="#61DAFB" stroke-width="4"/>
<path d="M37.2436 37.751C23.1123 62.1758 19.2326 86.3408 28.578 91.725C37.9235 97.1093 56.9551 81.6739 71.0864 57.2491C85.2177 32.8244 89.0974 8.65936 79.752 3.27509C70.4065 -2.10917 51.3749 13.3262 37.2436 37.751Z" stroke="#61DAFB" stroke-width="4"/>
</g>
<defs>
<clipPath id="clip0_110_461">
<rect width="107" height="95" fill="white" transform="translate(0.663086)"/>
</clipPath>
</defs>
</svg>
