<svg width="101" height="76" viewBox="0 0 101 76" fill="none" xmlns="http://www.w3.org/2000/svg">
<g clip-path="url(#clip0_110_438)">
<path d="M86.4518 43.7821C82.9557 43.8016 79.9283 44.6415 77.3893 45.8915C76.4518 44.036 75.5143 42.4149 75.358 41.204C75.1823 39.7977 74.9674 38.9384 75.1823 37.2587C75.3971 35.579 76.3737 33.1962 76.3737 33.0009C76.3541 32.8251 76.1588 31.9657 74.1471 31.9462C72.1354 31.9266 70.3971 32.3368 70.2018 32.8641C70.0065 33.3915 69.6158 34.6024 69.3619 35.8524C69.0104 37.6884 65.3385 44.1923 63.2487 47.6102C62.5651 46.2821 61.9791 45.1102 61.8619 44.1727C61.6862 42.7665 61.4713 41.9071 61.6862 40.2274C61.901 38.5477 62.8776 36.1649 62.8776 35.9696C62.858 35.7938 62.6627 34.9344 60.651 34.9149C58.6393 34.8954 56.901 35.3055 56.7057 35.8329C56.5104 36.3602 56.2955 37.6102 55.8658 38.8212C55.4557 40.0321 50.5729 50.8915 49.3033 53.7235C48.6588 55.1688 48.0924 56.3212 47.6823 57.1024C47.2721 57.8837 47.6627 57.161 47.6237 57.2391C47.2721 57.9032 47.0768 58.2743 47.0768 58.2743V58.2938C46.8033 58.7821 46.5104 59.2509 46.3737 59.2509C46.276 59.2509 46.0807 57.9423 46.4127 56.1454C47.1354 52.3759 48.8932 46.4969 48.8737 46.2821C48.8737 46.1844 49.2057 45.1493 47.7408 44.6219C46.3151 44.0946 45.8073 44.9735 45.6901 44.9735C45.5729 44.9735 45.4752 45.286 45.4752 45.286C45.4752 45.286 47.0573 38.6649 42.4479 38.6649C39.5573 38.6649 35.5729 41.8094 33.6002 44.6805C32.3502 45.3641 29.694 46.8094 26.8815 48.3524C25.8073 48.9384 24.694 49.5634 23.6393 50.1298L23.4244 49.8954C17.8385 43.9384 7.50648 39.7196 7.93616 31.7118C8.09241 28.8016 9.10804 21.1259 27.7799 11.829C43.0729 4.2118 55.319 6.30164 57.4479 10.9501C60.4752 17.5907 50.9049 29.9345 35.0065 31.7118C28.9518 32.3954 25.7682 30.0516 24.9674 29.1727C24.1276 28.2548 24.0104 28.2157 23.6979 28.3915C23.1901 28.6649 23.5026 29.4852 23.6979 29.9735C24.1666 31.204 26.1198 33.3915 29.4401 34.4852C32.3502 35.4423 39.4596 35.9696 48.0533 32.6493C57.6823 28.9188 65.2018 18.5673 62.9948 9.91492C60.7487 1.10633 46.1393 -1.7843 32.3307 3.11805C24.108 6.04773 15.2018 10.618 8.79554 16.6141C1.17835 23.7235 -0.032585 29.9344 0.475227 32.5126C2.25257 41.7118 14.9284 47.7079 20.0065 52.1415C19.7526 52.2782 19.5182 52.4149 19.3034 52.5321C16.7643 53.7821 7.09632 58.8407 4.67445 64.1923C1.94007 70.247 5.10413 74.6024 7.21351 75.1884C13.7369 77.0048 20.4166 73.743 24.0299 68.372C27.6237 63.0009 27.194 56.0282 25.5338 52.8446L25.4752 52.7274L27.4674 51.5555C28.7565 50.7938 30.026 50.0907 31.1393 49.4852C30.5143 51.1845 30.0651 53.1962 29.8307 56.1259C29.5573 59.5634 30.9635 64.0165 32.819 65.7743C33.6393 66.536 34.6158 66.5555 35.2213 66.5555C37.3698 66.5555 38.3463 64.7782 39.4205 62.6493C40.7487 60.0516 41.9205 57.0438 41.9205 57.0438C41.9205 57.0438 40.4557 65.1884 44.4596 65.1884C45.9244 65.1884 47.3893 63.2938 48.0533 62.3173V62.3368C48.0533 62.3368 48.0924 62.2782 48.1705 62.1415C48.3268 61.9071 48.4049 61.7704 48.4049 61.7704V61.7313C48.9908 60.7157 50.2994 58.3915 52.2526 54.5438C54.7721 49.5829 57.194 43.3719 57.194 43.3719C57.194 43.3719 57.4283 44.8954 58.151 47.3954C58.5807 48.8798 59.5182 50.5009 60.2408 52.0829C59.6549 52.9032 59.3033 53.372 59.3033 53.372L59.3229 53.3915C58.8541 54.0165 58.3268 54.6805 57.7799 55.3446C55.7877 57.7274 53.4049 60.4423 53.0924 61.2235C52.7213 62.1415 52.7994 62.8251 53.5221 63.372C54.0494 63.7626 54.9869 63.8407 55.983 63.7626C57.7799 63.6454 59.0299 63.1962 59.6549 62.9227C60.6315 62.5712 61.7448 62.0438 62.819 61.2626C64.7721 59.8173 65.9635 57.7665 65.8463 55.0321C65.7877 53.5282 65.2994 52.0438 64.694 50.6376C64.8698 50.3837 65.0455 50.1298 65.2213 49.8563C68.3073 45.3446 70.6901 40.3837 70.6901 40.3837C70.6901 40.3837 70.9244 41.9071 71.6471 44.4071C72.0182 45.6766 72.7604 47.0634 73.4244 48.4305C70.5338 50.7938 68.7174 53.5282 68.0924 55.3251C66.9401 58.6454 67.8385 60.1493 69.5377 60.5009C70.2994 60.6571 71.3932 60.3055 72.2135 59.954C73.2291 59.622 74.4596 59.0555 75.5924 58.2157C77.5455 56.7704 79.4205 54.7587 79.3229 52.0438C79.2643 50.7938 78.9323 49.5634 78.483 48.3915C80.944 47.3759 84.1276 46.7899 88.1705 47.2782C96.8619 48.2938 98.5807 53.7235 98.2487 55.9891C97.9166 58.2548 96.1002 59.5048 95.4948 59.8954C94.8893 60.2665 94.694 60.4032 94.7526 60.6766C94.8307 61.0868 95.1041 61.0673 95.6315 60.9891C96.3541 60.872 100.202 59.1337 100.358 54.954C100.592 49.5829 95.4948 43.7235 86.4518 43.7821ZM19.4205 66.3798C16.5494 69.5243 12.5065 70.7157 10.7877 69.7001C8.93226 68.6259 9.65491 63.997 13.1901 60.6571C15.3385 58.6259 18.1315 56.7509 19.9674 55.5985C20.3776 55.3446 21.0026 54.9735 21.7448 54.5243C21.8619 54.4462 21.9401 54.4071 21.9401 54.4071C22.0768 54.329 22.233 54.2313 22.3893 54.1337C23.6979 58.8993 22.4479 63.079 19.4205 66.3798ZM40.4166 52.1024C39.4205 54.5438 37.3112 60.8134 36.0416 60.4618C34.9479 60.1688 34.2838 55.4227 35.8268 50.7352C36.608 48.372 38.2682 45.5595 39.2448 44.4657C40.8268 42.7079 42.5455 42.122 42.9752 42.8446C43.483 43.7821 41.0416 50.579 40.4166 52.1024ZM57.7408 60.3837C57.3112 60.5985 56.9205 60.7548 56.7448 60.6376C56.608 60.5595 56.9205 60.2665 56.9205 60.2665C56.9205 60.2665 59.0885 57.9423 59.9479 56.868C60.4362 56.243 61.0221 55.5204 61.6471 54.7001V54.9345C61.6471 57.747 58.9518 59.622 57.7408 60.3837ZM71.1002 57.3368C70.7877 57.1024 70.8268 56.3798 71.8815 54.1141C72.2916 53.2157 73.2291 51.7118 74.8502 50.286C75.0455 50.8719 75.1627 51.4384 75.1432 51.9657C75.1237 55.4813 72.6237 56.7899 71.1002 57.3368Z" fill="#CF649A"/>
</g>
<defs>
<clipPath id="clip0_110_438">
<rect width="100" height="75" fill="white" transform="translate(0.396973 0.696167)"/>
</clipPath>
</defs>
</svg>
